<svg fill="none" fill-rule="evenodd" stroke="black" stroke-width="0.501" stroke-linejoin="bevel" stroke-miterlimit="10" font-family="Times New Roman" font-size="16" style="font-variant-ligatures:none" xmlns:xlink="http://www.w3.org/1999/xlink" xmlns="http://www.w3.org/2000/svg" version="1.1" overflow="visible" width="109.908pt" height="13.607pt" viewBox="163.776 -724.445 109.908 13.607">
 <defs>
  <style type="text/css">@import url('https://themes.googleusercontent.com/fonts/css?family=Open Sans:400,600');</style>
 </defs>
 <g id="Layer 1" transform="scale(1 -1)">
  <g id="Group" fill-rule="nonzero" stroke-linejoin="round" stroke-linecap="round" stroke-width="1.9" fill="#000000">
   <g id="Group_1">
    <path d="M 192.106,712.082 L 184.324,712.082 L 184.324,713.158 L 191.154,722.389 L 184.925,722.389 L 184.925,723.201 L 191.912,723.201 L 191.912,722.115 L 185.073,712.894 L 192.106,712.894 L 192.106,712.082 Z" marker-start="none" marker-end="none"/>
    <path d="M 203.456,712.082 L 196.146,712.082 L 196.146,723.201 L 203.207,723.201 L 203.207,722.389 L 196.885,722.389 L 196.885,718.276 L 202.809,718.276 L 202.809,717.464 L 196.885,717.464 L 196.885,712.894 L 203.456,712.894 L 203.456,712.082 Z" marker-start="none" marker-end="none"/>
    <path d="M 215.223,720.226 C 215.155,720.558 215.029,720.868 214.844,721.155 C 214.659,721.443 214.428,721.694 214.151,721.908 C 213.874,722.12 213.554,722.288 213.195,722.41 C 212.834,722.531 212.448,722.593 212.034,722.593 C 211.45,722.593 210.918,722.488 210.441,722.278 C 209.963,722.068 209.556,721.759 209.221,721.348 C 208.885,720.939 208.626,720.427 208.444,719.814 C 208.263,719.203 208.172,718.49 208.171,717.678 C 208.172,716.865 208.263,716.149 208.444,715.53 C 208.626,714.91 208.885,714.39 209.221,713.97 C 209.556,713.551 209.96,713.232 210.432,713.015 C 210.903,712.799 211.428,712.69 212.006,712.69 C 212.882,712.69 213.602,712.906 214.169,713.336 C 214.736,713.765 215.087,714.394 215.223,715.22 L 215.99,715.22 C 215.916,714.691 215.765,714.219 215.537,713.802 C 215.31,713.386 215.023,713.036 214.678,712.752 C 214.332,712.467 213.935,712.251 213.486,712.101 C 213.035,711.952 212.549,711.878 212.025,711.878 C 211.311,711.878 210.669,712.015 210.099,712.29 C 209.529,712.564 209.043,712.952 208.643,713.452 C 208.242,713.953 207.934,714.561 207.719,715.276 C 207.504,715.99 207.395,716.791 207.395,717.678 C 207.395,718.558 207.504,719.349 207.719,720.054 C 207.934,720.758 208.244,721.359 208.647,721.856 C 209.051,722.354 209.538,722.736 210.108,723.004 C 210.678,723.271 211.317,723.405 212.025,723.405 C 212.512,723.405 212.976,723.327 213.416,723.172 C 213.856,723.016 214.253,722.797 214.603,722.516 C 214.955,722.236 215.251,721.9 215.491,721.511 C 215.731,721.122 215.897,720.693 215.99,720.226 L 215.223,720.226 Z" marker-start="none" marker-end="none"/>
    <path d="M 224.264,711.878 C 223.659,711.878 223.143,711.948 222.716,712.087 C 222.287,712.225 221.932,712.413 221.648,712.651 C 221.365,712.887 221.14,713.164 220.973,713.483 C 220.807,713.801 220.681,714.14 220.594,714.499 C 220.508,714.858 220.454,715.23 220.433,715.615 C 220.412,716.002 220.401,716.377 220.4,716.743 L 220.4,723.201 L 221.14,723.201 L 221.14,716.773 C 221.14,715.927 221.209,715.238 221.348,714.707 C 221.486,714.176 221.69,713.761 221.958,713.463 C 222.226,713.164 222.552,712.962 222.937,712.853 C 223.322,712.745 223.764,712.69 224.264,712.69 C 224.768,712.69 225.216,712.745 225.607,712.853 C 225.999,712.962 226.326,713.166 226.588,713.467 C 226.849,713.77 227.048,714.183 227.183,714.712 C 227.319,715.24 227.386,715.927 227.386,716.773 L 227.386,723.201 L 228.126,723.201 L 228.126,716.743 C 228.126,715.978 228.067,715.294 227.95,714.691 C 227.834,714.089 227.631,713.579 227.341,713.163 C 227.051,712.747 226.656,712.429 226.157,712.209 C 225.658,711.989 225.027,711.878 224.264,711.878 Z" marker-start="none" marker-end="none"/>
    <path d="M 241.038,712.082 L 240.225,712.082 L 239.217,715.036 C 239.119,715.321 239.01,715.589 238.89,715.84 C 238.769,716.089 238.63,716.308 238.469,716.494 C 238.309,716.68 238.126,716.828 237.919,716.937 C 237.713,717.044 237.471,717.099 237.194,717.099 L 233.655,717.099 L 233.655,712.082 L 232.915,712.082 L 232.915,723.201 L 237.471,723.201 C 237.896,723.201 238.308,723.16 238.705,723.076 C 239.102,722.99 239.456,722.84 239.767,722.623 C 240.079,722.407 240.327,722.107 240.511,721.725 C 240.697,721.342 240.788,720.853 240.788,720.257 C 240.788,719.885 240.747,719.538 240.664,719.216 C 240.581,718.894 240.455,718.607 240.285,718.353 C 240.116,718.099 239.9,717.882 239.638,717.703 C 239.377,717.523 239.07,717.393 238.718,717.312 C 238.91,717.149 239.067,716.993 239.189,716.845 C 239.313,716.696 239.42,716.537 239.509,716.367 C 239.598,716.198 239.679,716.012 239.749,715.809 C 239.82,715.605 239.902,715.372 239.994,715.108 L 241.038,712.082 Z M 233.655,717.911 L 237.166,717.911 C 237.665,717.911 238.094,717.951 238.45,718.032 C 238.808,718.114 239.103,718.248 239.333,718.434 C 239.564,718.62 239.735,718.862 239.846,719.16 C 239.956,719.458 240.012,719.823 240.012,720.257 C 240.012,721.022 239.792,721.568 239.352,721.897 C 238.912,722.225 238.253,722.389 237.379,722.389 L 233.655,722.389 L 233.655,717.911 Z" marker-start="none" marker-end="none"/>
    <path d="M 246.502,712.082 L 245.763,712.082 L 245.763,723.201 L 246.502,723.201 L 246.502,712.082 Z" marker-start="none" marker-end="none"/>
    <path d="M 255.875,723.405 C 256.566,723.405 257.203,723.269 257.788,722.999 C 258.374,722.729 258.877,722.342 259.299,721.841 C 259.721,721.34 260.051,720.737 260.288,720.033 C 260.525,719.33 260.644,718.544 260.644,717.678 C 260.644,716.817 260.526,716.032 260.292,715.321 C 260.058,714.61 259.73,713.999 259.308,713.488 C 258.887,712.977 258.385,712.581 257.802,712.299 C 257.22,712.019 256.578,711.878 255.875,711.878 C 255.173,711.878 254.529,712.019 253.944,712.299 C 253.358,712.581 252.855,712.975 252.433,713.483 C 252.01,713.991 251.683,714.6 251.449,715.311 C 251.215,716.022 251.098,716.811 251.098,717.678 C 251.098,718.551 251.217,719.339 251.454,720.043 C 251.691,720.748 252.021,721.349 252.447,721.846 C 252.872,722.344 253.375,722.729 253.958,722.999 C 254.54,723.269 255.179,723.405 255.875,723.405 Z M 255.866,712.69 C 256.445,712.69 256.98,712.801 257.469,713.021 C 257.959,713.241 258.383,713.564 258.74,713.991 C 259.097,714.418 259.375,714.941 259.572,715.559 C 259.769,716.179 259.868,716.885 259.868,717.678 C 259.868,718.477 259.767,719.181 259.567,719.789 C 259.367,720.399 259.09,720.911 258.735,721.328 C 258.382,721.744 257.962,722.06 257.478,722.273 C 256.995,722.487 256.467,722.593 255.893,722.593 C 255.309,722.593 254.771,722.484 254.282,722.268 C 253.792,722.051 253.368,721.735 253.011,721.319 C 252.653,720.901 252.374,720.389 252.174,719.779 C 251.974,719.17 251.874,718.469 251.874,717.678 C 251.874,716.885 251.973,716.179 252.17,715.559 C 252.367,714.941 252.642,714.418 252.997,713.991 C 253.351,713.564 253.773,713.241 254.263,713.021 C 254.753,712.801 255.287,712.69 255.866,712.69 Z" marker-start="none" marker-end="none"/>
    <path d="M 272.734,712.082 L 271.763,712.082 L 265.591,722.237 L 265.591,712.082 L 264.851,712.082 L 264.851,723.201 L 265.868,723.201 L 271.995,713.067 L 271.995,723.201 L 272.734,723.201 L 272.734,712.082 Z" marker-start="none" marker-end="none"/>
   </g>
  </g>
  <g id="Group_2" stroke-linejoin="miter" stroke="none" fill="#ff005c">
   <path d="M 163.776,710.838 L 163.776,714.45 L 173.77,724.445 L 177.383,724.445 L 177.383,721.262 L 166.959,710.838 L 163.776,710.838 Z" marker-start="none" marker-end="none"/>
   <path d="M 170.44,710.838 L 177.383,717.78 L 177.383,710.985 L 177.236,710.838 L 170.44,710.838 Z" marker-start="none" marker-end="none"/>
   <path d="M 163.776,717.502 L 163.776,724.297 L 163.923,724.445 L 170.719,724.445 L 163.776,717.502 Z" marker-start="none" marker-end="none"/>
  </g>
 </g>
</svg>
